<?xml version="1.0" encoding="utf-8"?>
<!-- Generator: Adobe Illustrator 24.0.3, SVG Export Plug-In . SVG Version: 6.00 Build 0)  -->
<svg version="1.1" id="Layer_1" xmlns="http://www.w3.org/2000/svg" xmlns:xlink="http://www.w3.org/1999/xlink" x="0px" y="0px"
	 viewBox="0 0 1152 386" style="enable-background:new 0 0 1152 386;" xml:space="preserve">
<style type="text/css">
	.st0{fill:#009247;}
	.st1{fill:#59595C;}
	.st2{fill:#F59120;}
	.st3{fill:#0767B1;}
	.st4{fill:#B62226;}
	.st5{fill:#36B24A;}
	.st6{fill:#1B75BA;}
	.st7{fill:#2A3B8E;}
	.st8{fill:#E80A89;}
	.st9{fill:#652F8E;}
	.st10{fill:#00A59B;}
	.st11{fill:#F05A2A;}
	.st12{fill:#8F288C;}
	.st13{fill:#28AAE1;}
	.st14{fill:#231F20;}
	.st15{fill:#737270;}
	.st16{fill:none;}
</style>
<g>
	<g>
		<g>
			<g>
				<path class="st0" d="M227.3,332.5L227.3,332.5c6.9,6.8,18,6.8,24.9,0l0,0c6.9-6.8,6.9-17.8,0-24.6l0,0c-6.9-6.8-18-6.8-24.9,0
					l0,0C220.5,314.7,220.5,325.7,227.3,332.5z"/>
				<path class="st1" d="M340,135.7L340,135.7c-6.9-6.8-18-6.8-24.9,0l0,0c-6.9,6.8-6.9,17.8,0,24.6l0,0c6.9,6.8,18,6.8,24.9,0l0,0
					C346.8,153.5,346.8,142.4,340,135.7z"/>
				<polygon class="st2" points="282.8,252.9 258,277.5 325.9,344.8 350.7,320.2 				"/>
				<polygon class="st3" points="153.6,210.3 36,326.8 59.2,349.7 176.8,233.3 				"/>
				<path class="st4" d="M141.2,332.5L141.2,332.5c6.9,6.8,18,6.8,24.9,0l0,0c6.9-6.8,6.9-17.8,0-24.6l0,0c-6.9-6.8-18-6.8-24.9,0
					l0,0C134.3,314.7,134.3,325.7,141.2,332.5z"/>
				<polygon class="st5" points="171.8,277.5 196.7,302.2 264.6,234.9 239.7,210.3 				"/>
				<polygon class="st6" points="327.6,38 259.6,105.3 282.8,128.3 350.7,61 				"/>
				<polygon class="st7" points="133.7,105.3 108.9,80.7 40.9,148 65.8,172.6 				"/>
				<path class="st8" d="M78.2,75L78.2,75c6.9-6.8,6.9-17.8,0-24.6l0,0c-6.9-6.8-18-6.8-24.9,0l0,0c-6.9,6.8-6.9,17.8,0,24.6l0,0
					C60.2,81.8,71.3,81.8,78.2,75z"/>
				<path class="st9" d="M165.2,51.2l-1.7-1.6c-6.4-6.3-16.8-6.3-23.2,0l0,0c-6.4,6.3-6.4,16.6,0,23l1.7,1.6
					c6.4,6.3,16.8,6.3,23.2,0l0,0C171.6,67.8,171.6,57.5,165.2,51.2z"/>
				<polygon class="st10" points="239.7,36.4 171.8,103.7 196.7,128.3 264.6,61 				"/>
				<polygon class="st11" points="239.7,125 216.5,148 327.6,257.9 350.7,234.9 				"/>
				<polygon class="st12" points="151.9,123.3 127.1,148 195,215.2 219.9,190.6 				"/>
				<polygon class="st13" points="133.7,190.6 108.9,166 40.9,233.3 65.8,257.9 				"/>
			</g>
		</g>
		<g>
			<g>
				<path class="st14" d="M430.6,160.4l84.1-88.3h27.1v3.3l-63.1,66.3l64,94.2v3.3h-24.9l-55.3-80.5l-31.8,33.4v47.1h-22.9V72.1
					h22.9V160.4z"/>
				<path class="st14" d="M635.1,225.6c-0.9,0.9-2.4,2.2-4.3,3.8c-2,1.6-6.6,3.6-13.8,6.1c-7.3,2.5-15.3,3.8-24,3.8
					c-18.4,0-33.1-5.6-44-16.9s-16.3-26.1-16.3-44.4c0-17.8,5.1-32.6,15.4-44.2c10.2-11.6,23.7-17.4,40.5-17.4
					c16.6,0,29.5,5.4,38.7,16.3c9.2,10.9,13.8,24.8,13.8,41.9v5.9h-85.7c0.6,13,4.4,22.9,11.5,29.7c7.1,6.8,16.3,10.2,27.7,10.2
					c6.1,0,11.9-0.9,17.3-2.6c5.4-1.8,9.3-3.6,11.7-5.4l3.4-2.5L635.1,225.6z M556.3,163.7h61.7c-2.6-19.1-12.6-28.7-29.9-28.7
					C570.3,135,559.7,144.6,556.3,163.7z"/>
				<path class="st14" d="M785.6,239.2h-23.2v-72.4h-90.5v72.4H649V72.1h22.9v74.4h90.5V72.1h23.2V239.2z"/>
				<path class="st14" d="M930.3,115l-52.5,67.4h-7.5l-52.5-66.9v123.7h-23.2l0.3-167.2h16.8l62.6,80.2l62.3-80.2h16.8v167.2h-22.9
					V115z"/>
				<path class="st14" d="M987.6,239.2h-22.9V72.1h22.9V239.2z"/>
				<path class="st14" d="M1011.2,203.3c1.2,1.1,3.1,2.5,5.5,4.3c2.4,1.8,7.6,4.1,15.5,6.9c7.9,2.8,16.2,4.3,24.7,4.3
					c12.1,0,21.1-2.3,27-6.8c5.9-4.5,8.8-10.7,8.8-18.5c0-6.9-2.8-12.5-8.3-16.7c-5.5-4.2-16-8.6-31.5-13.2
					c-18.9-5.7-32.4-12-40.6-19.1c-8.2-7-12.3-16.5-12.3-28.4c0-13.5,5.1-24.2,15.2-32.1c10.2-7.9,24.3-11.9,42.5-11.9
					c11.4,0,21.6,1.3,30.6,4s15.2,5.3,18.6,8l4.8,4l-12,18.1c-1.1-1.1-2.7-2.4-4.8-3.9c-2.1-1.5-6.9-3.5-14.2-6
					c-7.3-2.5-15-3.7-23-3.7c-10.3,0-18.6,2-24.9,6.1c-6.2,4.1-9.4,9.8-9.4,17.1c0,6,2.8,10.9,8.3,14.7c5.5,3.7,15.9,7.8,31,12.3
					c19.6,5.7,33.5,12.4,41.6,20c8.1,7.6,12.2,17.6,12.2,29.9c0,13.9-5.1,25.1-15.4,33.7c-10.2,8.6-24.8,12.9-43.7,12.9
					c-7.5,0-14.6-0.7-21.3-2c-6.7-1.3-12.2-2.9-16.6-4.8c-4.4-1.9-8.2-3.8-11.4-5.7c-3.2-2-5.5-3.6-7-5.1l-2.1-1.9L1011.2,203.3z"/>
			</g>
			<g>
				<g>
					<rect x="407.7" y="262.3" class="st14" width="708.9" height="0.7"/>
				</g>
				<g>
					<path class="st15" d="M415.4,293.1l-4.9,5.1v6.5h-2.6v-24.9h2.6v14.8l14.3-14.8h3.2l-10.8,11.4l12.1,13.6h-3.3L415.4,293.1z"/>
					<path class="st15" d="M444.6,296.2c0,0.6,0,0.9,0,1.1l-0.1-0.1v0.1h-14.3c0.2,1.7,0.9,3.1,2,4.2s2.6,1.6,4.3,1.6
						c2.4,0,4.1-0.9,4.9-2.6h2.7c-0.5,1.4-1.4,2.6-2.8,3.5c-1.4,0.9-3,1.3-4.9,1.3c-2.6,0-4.7-0.9-6.3-2.6c-1.6-1.7-2.5-3.8-2.5-6.4
						c0-2.5,0.8-4.6,2.5-6.3c1.6-1.7,3.7-2.6,6.3-2.6c2.4,0,4.4,0.8,5.9,2.5C443.8,291.5,444.6,293.6,444.6,296.2z M436.3,289.5
						c-1.7,0-3.1,0.5-4.3,1.6c-1.1,1.1-1.8,2.5-1.9,4.1h12c-0.1-1.8-0.7-3.2-1.8-4.2C439.3,290,437.9,289.5,436.3,289.5z"/>
					<path class="st15" d="M455,287.2c2.1,0,3.9,0.7,5.2,2.1c1.3,1.4,2,3.3,2,5.6v9.7h-2.5v-9.6c0-1.7-0.5-3.1-1.4-4.1
						c-0.9-1-2.2-1.5-3.7-1.5c-2.3,0-4.3,1.1-5.8,3.2v12h-2.5v-16.9h2.5v2C450.4,288.1,452.5,287.2,455,287.2z"/>
					<path class="st15" d="M480.8,287.8l-11.9,26h-2.7l3.7-8.2l-8.6-17.8h2.7l7.3,14.9l6.8-14.9H480.8z"/>
					<path class="st15" d="M497,287.8v16.9h-2.5v-1.9c-1.6,1.6-3.7,2.3-6.1,2.3c-2.4,0-4.5-0.9-6.2-2.6c-1.7-1.7-2.6-3.8-2.6-6.3
						c0-2.5,0.9-4.6,2.6-6.3c1.7-1.7,3.8-2.6,6.2-2.6c2.4,0,4.5,0.8,6.1,2.3v-1.9H497z M488.6,303c2.4,0,4.4-1,5.8-3.1v-7.3
						c-1.4-2.1-3.3-3.1-5.8-3.1c-1.9,0-3.4,0.7-4.7,2c-1.2,1.3-1.9,2.9-1.9,4.7c0,1.9,0.6,3.4,1.9,4.8
						C485.3,302.3,486.8,303,488.6,303z"/>
					<path class="st15" d="M527.2,279.8v24.9h-2.6v-11.1h-15.1v11.1h-2.6v-24.9h2.6v11.4h15.1v-11.4H527.2z"/>
					<path class="st15" d="M546.6,296.2c0,0.6,0,0.9,0,1.1l-0.1-0.1v0.1h-14.3c0.2,1.7,0.9,3.1,2,4.2c1.1,1.1,2.6,1.6,4.3,1.6
						c2.4,0,4.1-0.9,4.9-2.6h2.7c-0.5,1.4-1.4,2.6-2.8,3.5c-1.4,0.9-3,1.3-4.9,1.3c-2.6,0-4.7-0.9-6.3-2.6c-1.6-1.7-2.5-3.8-2.5-6.4
						c0-2.5,0.8-4.6,2.5-6.3c1.6-1.7,3.7-2.6,6.3-2.6c2.4,0,4.4,0.8,5.9,2.5C545.8,291.5,546.6,293.6,546.6,296.2z M538.3,289.5
						c-1.7,0-3.1,0.5-4.3,1.6c-1.1,1.1-1.8,2.5-1.9,4.1h12c-0.1-1.8-0.7-3.2-1.8-4.2C541.3,290,539.9,289.5,538.3,289.5z"/>
					<path class="st15" d="M564.7,287.8v16.9h-2.5v-1.9c-1.6,1.6-3.7,2.3-6.1,2.3c-2.4,0-4.5-0.9-6.2-2.6c-1.7-1.7-2.6-3.8-2.6-6.3
						c0-2.5,0.9-4.6,2.6-6.3c1.7-1.7,3.8-2.6,6.2-2.6c2.4,0,4.5,0.8,6.1,2.3v-1.9H564.7z M556.4,303c2.4,0,4.4-1,5.8-3.1v-7.3
						c-1.4-2.1-3.3-3.1-5.8-3.1c-1.9,0-3.4,0.7-4.7,2c-1.2,1.3-1.9,2.9-1.9,4.7c0,1.9,0.6,3.4,1.9,4.8
						C553,302.3,554.6,303,556.4,303z"/>
					<path class="st15" d="M570.1,278.7v26h-2.5v-26H570.1z"/>
					<path class="st15" d="M583.6,302.5l0.4,2.2c-1.3,0.4-2.5,0.6-3.7,0.6c-3.9,0-5.9-2.2-5.9-6.6v-8.7H570v-2.2h4.5v-6.3h2.5v6.3
						h6.4v2.2H577v8.7c0,1.5,0.3,2.6,0.9,3.3c0.6,0.7,1.6,1,2.9,1C581.6,302.9,582.6,302.8,583.6,302.5z"/>
					<path class="st15" d="M593.9,287.2c2.1,0,3.9,0.7,5.2,2.1c1.3,1.4,2,3.3,2,5.6v9.7h-2.5v-9.6c0-1.7-0.5-3.1-1.4-4.1
						c-0.9-1-2.2-1.5-3.7-1.5c-2.3,0-4.3,1.1-5.8,3.2v12h-2.5v-26h2.5v11.1C589.3,288.1,591.4,287.2,593.9,287.2z"/>
					<path class="st15" d="M634.4,279.8v24.9h-2.6l0-19.3l-8.6,14.4h-1.8l-8.6-14.4l0.1,19.3h-2.6v-24.9h2l10,16.8l10-16.8H634.4z"
						/>
					<path class="st15" d="M654.3,287.8v16.9h-2.5v-1.9c-1.6,1.6-3.7,2.3-6.1,2.3c-2.4,0-4.5-0.9-6.2-2.6c-1.7-1.7-2.6-3.8-2.6-6.3
						c0-2.5,0.9-4.6,2.6-6.3c1.7-1.7,3.8-2.6,6.2-2.6c2.4,0,4.5,0.8,6.1,2.3v-1.9H654.3z M645.9,303c2.4,0,4.4-1,5.8-3.1v-7.3
						c-1.4-2.1-3.3-3.1-5.8-3.1c-1.9,0-3.4,0.7-4.7,2c-1.2,1.3-1.9,2.9-1.9,4.7c0,1.9,0.6,3.4,1.9,4.8
						C642.5,302.3,644.1,303,645.9,303z"/>
					<path class="st15" d="M665.9,287.2c2.1,0,3.9,0.7,5.2,2.1c1.3,1.4,2,3.3,2,5.6v9.7h-2.5v-9.6c0-1.7-0.5-3.1-1.4-4.1
						c-0.9-1-2.2-1.5-3.7-1.5c-2.3,0-4.3,1.1-5.8,3.2v12h-2.5v-16.9h2.5v2C661.3,288.1,663.3,287.2,665.9,287.2z"/>
					<path class="st15" d="M691.8,287.8v16.9h-2.5v-1.9c-1.6,1.6-3.7,2.3-6.1,2.3c-2.4,0-4.5-0.9-6.2-2.6c-1.7-1.7-2.6-3.8-2.6-6.3
						c0-2.5,0.9-4.6,2.6-6.3c1.7-1.7,3.8-2.6,6.2-2.6c2.4,0,4.5,0.8,6.1,2.3v-1.9H691.8z M683.4,303c2.4,0,4.4-1,5.8-3.1v-7.3
						c-1.4-2.1-3.3-3.1-5.8-3.1c-1.9,0-3.4,0.7-4.7,2c-1.2,1.3-1.9,2.9-1.9,4.7c0,1.9,0.6,3.4,1.9,4.8
						C680,302.3,681.6,303,683.4,303z"/>
					<path class="st15" d="M711,287.8v17.5c0,2.6-0.8,4.6-2.3,6.1c-1.6,1.5-3.6,2.3-6.1,2.3c-2.2,0-4-0.6-5.6-1.8
						c-1.5-1.2-2.5-2.7-2.8-4.5h2.6c0.2,1.2,0.9,2.2,1.9,2.9c1,0.7,2.3,1.1,3.8,1.1c1.8,0,3.2-0.5,4.3-1.6c1.1-1.1,1.6-2.6,1.6-4.4
						v-3c-1.7,1.6-3.8,2.4-6.3,2.4c-2.4,0-4.5-0.8-6.1-2.5c-1.6-1.7-2.5-3.8-2.5-6.2c0-2.5,0.8-4.6,2.5-6.3c1.6-1.7,3.7-2.5,6.1-2.5
						c2.5,0,4.7,0.8,6.3,2.4v-1.8H711z M702.5,302.5c2.6,0,4.6-1.1,6-3.2v-6.7c-1.4-2.1-3.5-3.2-6-3.2c-1.8,0-3.3,0.6-4.5,1.9
						c-1.2,1.3-1.8,2.8-1.8,4.7c0,1.8,0.6,3.3,1.8,4.6C699.1,301.9,700.6,302.5,702.5,302.5z"/>
					<path class="st15" d="M729.8,296.2c0,0.6,0,0.9,0,1.1l-0.1-0.1v0.1h-14.3c0.2,1.7,0.9,3.1,2,4.2s2.6,1.6,4.3,1.6
						c2.4,0,4.1-0.9,4.9-2.6h2.7c-0.5,1.4-1.4,2.6-2.8,3.5c-1.4,0.9-3,1.3-4.9,1.3c-2.6,0-4.7-0.9-6.3-2.6c-1.6-1.7-2.5-3.8-2.5-6.4
						c0-2.5,0.8-4.6,2.5-6.3c1.6-1.7,3.7-2.6,6.3-2.6c2.4,0,4.4,0.8,5.9,2.5C728.9,291.5,729.7,293.6,729.8,296.2z M721.4,289.5
						c-1.7,0-3.1,0.5-4.3,1.6c-1.1,1.1-1.8,2.5-1.9,4.1h12c-0.1-1.8-0.7-3.2-1.8-4.2C724.4,290,723.1,289.5,721.4,289.5z"/>
					<path class="st15" d="M752.1,287.2c2.1,0,3.7,0.7,5,2.1c1.3,1.4,1.9,3.3,1.9,5.6v9.7h-2.5v-9.6c0-1.8-0.4-3.1-1.3-4.1
						c-0.9-1-2-1.4-3.6-1.4c-2.3,0-4.1,1.1-5.4,3.3c0.1,0.7,0.2,1.4,0.2,2.2v9.7h-2.5v-9.6c0-1.8-0.4-3.1-1.3-4.1
						c-0.9-1-2.1-1.4-3.6-1.4c-2.1,0-3.8,1-5.2,3.1v12.1h-2.5v-16.9h2.5v1.9c1.5-1.6,3.4-2.5,5.6-2.5c2.6,0,4.5,1.1,5.8,3.1
						C747.1,288.3,749.3,287.2,752.1,287.2z"/>
					<path class="st15" d="M777.4,296.2c0,0.6,0,0.9,0,1.1l-0.1-0.1v0.1h-14.3c0.2,1.7,0.9,3.1,2,4.2s2.6,1.6,4.3,1.6
						c2.4,0,4.1-0.9,4.9-2.6h2.7c-0.5,1.4-1.4,2.6-2.8,3.5c-1.4,0.9-3,1.3-4.9,1.3c-2.6,0-4.7-0.9-6.3-2.6c-1.6-1.7-2.5-3.8-2.5-6.4
						c0-2.5,0.8-4.6,2.5-6.3c1.6-1.7,3.7-2.6,6.3-2.6c2.4,0,4.4,0.8,5.9,2.5C776.5,291.5,777.3,293.6,777.4,296.2z M769,289.5
						c-1.7,0-3.1,0.5-4.3,1.6c-1.1,1.1-1.8,2.5-1.9,4.1h12c-0.1-1.8-0.7-3.2-1.8-4.2C772,290,770.7,289.5,769,289.5z"/>
					<path class="st15" d="M787.7,287.2c2.1,0,3.9,0.7,5.2,2.1c1.3,1.4,2,3.3,2,5.6v9.7h-2.5v-9.6c0-1.7-0.5-3.1-1.4-4.1
						c-0.9-1-2.2-1.5-3.7-1.5c-2.3,0-4.3,1.1-5.8,3.2v12H779v-16.9h2.5v2C783.1,288.1,785.2,287.2,787.7,287.2z"/>
					<path class="st15" d="M807.7,302.5l0.4,2.2c-1.3,0.4-2.5,0.6-3.7,0.6c-3.9,0-5.9-2.2-5.9-6.6v-8.7h-4.5v-2.2h4.5v-6.3h2.5v6.3
						h6.4v2.2h-6.4v8.7c0,1.5,0.3,2.6,0.9,3.3c0.6,0.7,1.6,1,2.9,1C805.8,302.9,806.7,302.8,807.7,302.5z"/>
					<path class="st15" d="M819.2,279.8v24.9h-2.6v-24.9H819.2z"/>
					<path class="st15" d="M831.2,287.2c2.1,0,3.9,0.7,5.2,2.1c1.3,1.4,2,3.3,2,5.6v9.7h-2.5v-9.6c0-1.7-0.5-3.1-1.4-4.1
						c-0.9-1-2.2-1.5-3.7-1.5c-2.3,0-4.3,1.1-5.8,3.2v12h-2.5v-16.9h2.5v2C826.6,288.1,828.7,287.2,831.2,287.2z"/>
					<path class="st15" d="M845.1,287.8h6.8v2.2h-6.8v14.8h-2.5v-14.8h-4.9v-2.2h4.9v-4.4c0-1.9,0.5-3.5,1.6-4.6
						c1.1-1.2,2.6-1.7,4.4-1.7c1.1,0,2.3,0.2,3.5,0.5l-0.4,2.2c-1-0.2-1.9-0.4-2.7-0.4c-1.2,0-2.2,0.4-2.9,1.1
						c-0.7,0.7-1.1,1.7-1.1,2.9V287.8z"/>
					<path class="st15" d="M868.2,296.2c0,2.5-0.9,4.7-2.6,6.4c-1.7,1.7-3.9,2.6-6.4,2.6c-2.5,0-4.7-0.9-6.4-2.6
						c-1.7-1.7-2.6-3.9-2.6-6.4c0-2.5,0.9-4.6,2.6-6.3c1.7-1.7,3.8-2.6,6.4-2.6c2.5,0,4.7,0.9,6.4,2.6
						C867.3,291.6,868.2,293.7,868.2,296.2z M865.7,296.2c0-1.8-0.6-3.4-1.9-4.7c-1.2-1.3-2.8-1.9-4.6-1.9c-1.8,0-3.4,0.6-4.6,1.9
						c-1.2,1.3-1.9,2.8-1.9,4.7c0,1.9,0.6,3.5,1.9,4.8c1.2,1.3,2.8,1.9,4.6,1.9s3.4-0.6,4.6-1.9
						C865.1,299.7,865.7,298.1,865.7,296.2z"/>
					<path class="st15" d="M872.3,287.8v2.9c1.7-2.2,3.9-3.4,6.6-3.4v2.4c-2.8,0.1-5,1.4-6.6,3.9v11.1h-2.5v-16.9H872.3z"/>
					<path class="st15" d="M900.4,287.2c2.1,0,3.7,0.7,5,2.1c1.3,1.4,1.9,3.3,1.9,5.6v9.7h-2.5v-9.6c0-1.8-0.4-3.1-1.3-4.1
						c-0.9-1-2-1.4-3.6-1.4c-2.3,0-4.1,1.1-5.4,3.3c0.1,0.7,0.2,1.4,0.2,2.2v9.7h-2.5v-9.6c0-1.8-0.4-3.1-1.3-4.1s-2.1-1.4-3.6-1.4
						c-2.1,0-3.8,1-5.2,3.1v12.1h-2.5v-16.9h2.5v1.9c1.5-1.6,3.4-2.5,5.6-2.5c2.6,0,4.5,1.1,5.8,3.1
						C895.4,288.3,897.6,287.2,900.4,287.2z"/>
					<path class="st15" d="M926,287.8v16.9h-2.5v-1.9c-1.6,1.6-3.7,2.3-6.1,2.3c-2.4,0-4.5-0.9-6.2-2.6c-1.7-1.7-2.6-3.8-2.6-6.3
						c0-2.5,0.9-4.6,2.6-6.3c1.7-1.7,3.8-2.6,6.2-2.6c2.4,0,4.5,0.8,6.1,2.3v-1.9H926z M917.7,303c2.4,0,4.4-1,5.8-3.1v-7.3
						c-1.4-2.1-3.3-3.1-5.8-3.1c-1.9,0-3.4,0.7-4.7,2c-1.2,1.3-1.9,2.9-1.9,4.7c0,1.9,0.6,3.4,1.9,4.8
						C914.3,302.3,915.9,303,917.7,303z"/>
					<path class="st15" d="M939.6,302.5l0.4,2.2c-1.3,0.4-2.5,0.6-3.7,0.6c-3.9,0-5.9-2.2-5.9-6.6v-8.7h-4.5v-2.2h4.5v-6.3h2.5v6.3
						h6.4v2.2h-6.4v8.7c0,1.5,0.3,2.6,0.9,3.3c0.6,0.7,1.6,1,2.9,1C937.6,302.9,938.5,302.8,939.6,302.5z"/>
					<path class="st15" d="M944.9,281.4c0,0.7-0.3,1.2-0.8,1.5c-0.6,0.3-1.2,0.3-1.8,0c-0.6-0.3-0.9-0.8-0.8-1.5
						c0-0.5,0.2-0.9,0.5-1.2c0.3-0.3,0.7-0.5,1.2-0.5c0.5,0,0.9,0.2,1.2,0.5C944.7,280.5,944.9,280.9,944.9,281.4z M944.4,287.8
						v16.9h-2.5v-16.9H944.4z"/>
					<path class="st15" d="M964.6,296.2c0,2.5-0.9,4.7-2.6,6.4c-1.7,1.7-3.9,2.6-6.4,2.6c-2.5,0-4.7-0.9-6.4-2.6
						c-1.7-1.7-2.6-3.9-2.6-6.4c0-2.5,0.9-4.6,2.6-6.3c1.7-1.7,3.8-2.6,6.4-2.6c2.5,0,4.7,0.9,6.4,2.6
						C963.8,291.6,964.6,293.7,964.6,296.2z M962.1,296.2c0-1.8-0.6-3.4-1.9-4.7c-1.2-1.3-2.8-1.9-4.6-1.9c-1.8,0-3.4,0.6-4.6,1.9
						c-1.2,1.3-1.9,2.8-1.9,4.7c0,1.9,0.6,3.5,1.9,4.8c1.2,1.3,2.8,1.9,4.6,1.9c1.8,0,3.4-0.6,4.6-1.9
						C961.5,299.7,962.1,298.1,962.1,296.2z"/>
					<path class="st15" d="M975,287.2c2.1,0,3.9,0.7,5.2,2.1c1.3,1.4,2,3.3,2,5.6v9.7h-2.5v-9.6c0-1.7-0.5-3.1-1.4-4.1
						c-0.9-1-2.2-1.5-3.7-1.5c-2.3,0-4.3,1.1-5.8,3.2v12h-2.5v-16.9h2.5v2C970.4,288.1,972.5,287.2,975,287.2z"/>
					<path class="st15" d="M1000,279.2c2.6,0,4.8,0.6,6.6,1.9c1.8,1.2,2.8,3.1,3.1,5.4h-2.6c-0.6-3.3-2.9-5-7-5
						c-1.9,0-3.4,0.4-4.6,1.3c-1.1,0.9-1.7,2-1.7,3.4c0,2.2,1.7,3.6,5.1,4.3l3.8,0.7c4.6,0.9,6.9,3,6.9,6.5c0,2.3-0.9,4.1-2.6,5.5
						c-1.7,1.4-3.9,2.1-6.7,2.1c-3,0-5.4-0.7-7.2-2.2c-1.8-1.5-2.9-3.6-3.2-6.3h2.6c0.3,2,1.2,3.5,2.5,4.6c1.4,1.1,3.2,1.6,5.4,1.6
						c2,0,3.6-0.4,4.7-1.3c1.2-0.9,1.8-2.1,1.8-3.6c0-2.2-1.6-3.6-4.7-4.2l-4.3-0.8c-4.6-0.9-6.9-3.1-6.9-6.5c0-2.1,0.8-3.9,2.4-5.2
						C995.2,279.9,997.4,279.2,1000,279.2z"/>
					<path class="st15" d="M1028.2,287.8l-11.9,26h-2.7l3.7-8.2l-8.6-17.8h2.7l7.3,14.9l6.8-14.9H1028.2z"/>
					<path class="st15" d="M1027.1,299.5h2.3c0.6,2.5,2.4,3.7,5.6,3.7c1.4,0,2.5-0.3,3.4-0.8c0.9-0.5,1.3-1.3,1.3-2.2
						c0-1.5-1-2.4-2.9-2.7l-3.9-0.7c-3.3-0.6-5-2.1-5-4.5c0-1.5,0.6-2.7,1.9-3.6c1.2-0.9,2.9-1.4,4.9-1.4c1.9,0,3.5,0.5,5,1.4
						c1.4,0.9,2.2,2.2,2.3,4h-2.3c-0.1-1.1-0.6-1.9-1.5-2.5c-0.9-0.6-2-0.9-3.5-0.9c-1.3,0-2.3,0.3-3.1,0.8c-0.8,0.5-1.2,1.2-1.2,2
						c0,1.4,1.1,2.2,3.3,2.6l3.4,0.6c3.4,0.6,5.1,2.1,5.1,4.7c0,1.6-0.7,2.9-2,3.8c-1.3,1-3,1.4-5.1,1.4c-2.3,0-4.1-0.5-5.5-1.5
						C1028.2,302.8,1027.4,301.3,1027.1,299.5z"/>
					<path class="st15" d="M1054.7,302.5l0.4,2.2c-1.3,0.4-2.5,0.6-3.7,0.6c-3.9,0-5.9-2.2-5.9-6.6v-8.7h-4.5v-2.2h4.5v-6.3h2.5v6.3
						h6.4v2.2h-6.4v8.7c0,1.5,0.3,2.6,0.9,3.3c0.6,0.7,1.6,1,2.9,1C1052.7,302.9,1053.7,302.8,1054.7,302.5z"/>
					<path class="st15" d="M1071.3,296.2c0,0.6,0,0.9,0,1.1l-0.1-0.1v0.1h-14.3c0.2,1.7,0.9,3.1,2,4.2s2.6,1.6,4.3,1.6
						c2.4,0,4.1-0.9,4.9-2.6h2.7c-0.5,1.4-1.4,2.6-2.8,3.5c-1.4,0.9-3,1.3-4.9,1.3c-2.6,0-4.7-0.9-6.3-2.6c-1.6-1.7-2.5-3.8-2.5-6.4
						c0-2.5,0.8-4.6,2.5-6.3c1.6-1.7,3.7-2.6,6.3-2.6c2.4,0,4.4,0.8,5.9,2.5C1070.5,291.5,1071.2,293.6,1071.3,296.2z M1063,289.5
						c-1.7,0-3.1,0.5-4.3,1.6c-1.1,1.1-1.8,2.5-1.9,4.1h12c-0.1-1.8-0.7-3.2-1.8-4.2C1065.9,290,1064.6,289.5,1063,289.5z"/>
					<path class="st15" d="M1093.6,287.2c2.1,0,3.7,0.7,5,2.1c1.3,1.4,1.9,3.3,1.9,5.6v9.7h-2.5v-9.6c0-1.8-0.4-3.1-1.3-4.1
						c-0.9-1-2-1.4-3.6-1.4c-2.3,0-4.1,1.1-5.4,3.3c0.1,0.7,0.2,1.4,0.2,2.2v9.7h-2.5v-9.6c0-1.8-0.4-3.1-1.3-4.1
						c-0.9-1-2.1-1.4-3.6-1.4c-2.1,0-3.8,1-5.2,3.1v12.1h-2.5v-16.9h2.5v1.9c1.5-1.6,3.4-2.5,5.6-2.5c2.6,0,4.5,1.1,5.8,3.1
						C1088.6,288.3,1090.9,287.2,1093.6,287.2z"/>
					<path class="st15" d="M1101.4,299.5h2.3c0.6,2.5,2.4,3.7,5.6,3.7c1.4,0,2.5-0.3,3.4-0.8c0.9-0.5,1.3-1.3,1.3-2.2
						c0-1.5-1-2.4-2.9-2.7l-3.9-0.7c-3.3-0.6-5-2.1-5-4.5c0-1.5,0.6-2.7,1.9-3.6c1.2-0.9,2.9-1.4,4.9-1.4c1.9,0,3.5,0.5,5,1.4
						c1.4,0.9,2.2,2.2,2.3,4h-2.3c-0.1-1.1-0.6-1.9-1.5-2.5c-0.9-0.6-2-0.9-3.5-0.9c-1.3,0-2.3,0.3-3.1,0.8c-0.8,0.5-1.2,1.2-1.2,2
						c0,1.4,1.1,2.2,3.3,2.6l3.4,0.6c3.4,0.6,5.1,2.1,5.1,4.7c0,1.6-0.7,2.9-2,3.8c-1.3,1-3,1.4-5.1,1.4c-2.3,0-4.1-0.5-5.5-1.5
						C1102.4,302.8,1101.6,301.3,1101.4,299.5z"/>
				</g>
			</g>
		</g>
	</g>
	<rect x="-0.2" y="0" class="st16" width="1152.4" height="386.1"/>
</g>
</svg>
